<svg version="1.2" xmlns="http://www.w3.org/2000/svg" viewBox="0 0 327 330" width="500" height="500"><defs><clipPath clipPathUnits="userSpaceOnUse" id="cp1"><path d="m21.13 179.91h284.57c4.89 0 9.57 1.93 13.02 5.39 3.46 3.45 5.4 8.13 5.4 13.02 0 4.88-1.94 9.56-5.4 13.02-3.45 3.45-8.13 5.39-13.02 5.39h-284.57c-4.89 0-9.57-1.94-13.03-5.39-3.45-3.46-5.39-8.14-5.39-13.02 0-4.89 1.94-9.57 5.39-13.02 3.46-3.46 8.14-5.39 13.03-5.39z"/></clipPath></defs><style>.a{fill:none;stroke:#fff;stroke-width:24.4}.b{fill:#463699}.c{fill:none;stroke:#fff;stroke-width:19.6}.d{fill:#774099}.e{fill:#fff}</style><path fill-rule="evenodd" class="a" d="m255.6 33.2q-2.8 3.6-7 7.1-3.5 3.1-8.6 6.4-5.2 3.3-12 6 2.2-2.8 0.4-6.1-1.9-3.2-8.1-5.9-6.2-2.8-16.7-4.5-10.6-1.7-25.9-1.7-8.9 0-19.2 1.8-10.2 1.8-20.2 6.3-10.1 4.4-19.4 11.8-9.3 7.4-16.4 18.5-7.2 11-11.4 26.2-4.2 15.2-4.2 35.1 0 19.9 4.8 35 4.9 15.1 12.9 26 8.1 10.9 18.4 18.1 10.3 7.2 21.1 11.6 10.9 4.4 21.3 6.1 10.4 1.8 18.8 1.8 9.7-0.2 20.2-1.4 9.1-1.2 20-3.3 10.9-2.1 21.4-6.3-15.4 12.4-28.6 18.9-13.3 6.6-23.3 9.7-11.6 3.7-21.3 4.2-23.5 0-44.4-6.9-20.8-7-36.5-20.1-15.6-13.1-24.7-32.2-9.1-19.1-9.1-43.4 0-15.1 2.9-28.1 2.9-12.9 7.6-23.8 4.6-10.8 10.5-19.4 5.9-8.7 12-15.3 6.2-6.6 12-11.1 5.8-4.4 10.1-6.8 4.1-2.4 10.5-5.4 6.5-3 14.2-6.1 7.7-3.1 16.3-6.2 8.6-3 17.5-5.4 8.9-2.4 17.4-3.8 8.5-1.4 16.2-1.4 17 0 27.5 1.6 10.5 1.6 16 3.9 5.4 2.3 6.8 4.7 1.4 2.4 0.2 3.8z"/><path class="b" d="m255.4 33.4q-2.9 3.7-7 7.2-3.5 3-8.6 6.3-5.2 3.3-12 6 2.2-2.8 0.4-6.1-1.8-3.2-8-5.9-6.2-2.7-16.8-4.5-10.5-1.7-25.7-1.7-8.9 0-19.2 1.8-10.2 1.9-20.2 6.3-10 4.4-19.3 11.8-9.2 7.4-16.4 18.4-7.1 11-11.3 26.2-4.2 15.1-4.2 35 0 19.8 4.8 34.9 4.8 15.1 12.9 25.9 8 10.9 18.3 18.1 10.3 7.2 21.1 11.6 10.8 4.3 21.2 6.1 10.4 1.7 18.8 1.7 9.6-0.1 20.1-1.4 9.1-1.1 19.9-3.2 10.9-2.2 21.4-6.3-15.4 12.4-28.6 18.9-13.2 6.5-23.2 9.7-11.5 3.6-21.2 4.1-23.5 0-44.3-6.9-20.8-6.9-36.4-20-15.6-13.1-24.7-32.1-9-19.1-9-43.4 0-15 2.8-27.9 2.9-13 7.6-23.8 4.7-10.8 10.5-19.4 5.9-8.7 12-15.2 6.1-6.6 11.9-11.1 5.8-4.4 10.1-6.8 4.1-2.4 10.5-5.4 6.5-3 14.2-6.1 7.6-3.1 16.2-6.1 8.6-3 17.5-5.4 8.9-2.4 17.3-3.8 8.5-1.4 16.1-1.4 17 0 27.5 1.6 10.5 1.5 15.9 3.8 5.5 2.3 6.9 4.7 1.3 2.4 0.2 3.8z"/><path fill-rule="evenodd" class="c" d="m285.2 139.4q-2.3 3-5.6 5.8-2.8 2.4-6.9 5-4.2 2.7-9.6 4.9 1.7-2.3 0.3-4.9-1.5-2.6-6.5-4.8-4.9-2.2-13.4-3.6-8.4-1.4-20.7-1.4-7.1 0-15.3 1.5-8.2 1.5-16.2 5-8 3.6-15.5 9.5-7.4 5.9-13.2 14.8-5.7 8.8-9.1 21-3.3 12.1-3.3 28 0 16 3.8 28 3.9 12.1 10.3 20.9 6.5 8.7 14.7 14.5 8.3 5.8 17 9.3 8.6 3.5 17 4.9 8.3 1.4 15 1.4 5.1 0 11-0.6 5-0.3 11.3-1.2 6.4-0.9 13.3-2.7 1.7-1.9 2.8-4 1-2.1 1.6-3.9 0.7-2 1-4.1 0.8-13.1 0.7-25.9-0.2-12.9-0.2-25.9-3.5-0.3-7.6-0.7-4.1-0.4-8-0.4-3.2 0-5.8 0.2-2.6 0.3-4.7 1.2 7.3-4.5 12.4-6.9 5.1-2.5 8.4-3.9 3.8-1.6 6.4-2.1 2.8-0.3 6.9-0.6 4.1-0.3 8.5-0.4 4.4-0.2 8.7-0.6 4.2-0.3 7.4-0.9l-8.9 6.2q-0.2 13.3-0.6 22.1-0.3 8.9-0.5 14.2-0.4 6.2-0.7 9.9-0.1 4.2-1.4 8-1.4 3.9-4.2 7.5-2.9 3.6-7.5 7.2-4.7 3.5-11.3 7.2-10.3 6.9-19.1 10.6-8.8 3.7-15.3 5.5-7.6 2-13.8 2.4-18.9 0-35.6-5.5-16.6-5.6-29.2-16.1-12.5-10.5-19.8-25.8-7.2-15.2-7.2-34.7 0-12.1 2.3-22.5 2.3-10.3 6-19 3.8-8.6 8.5-15.6 4.7-6.9 9.6-12.2 4.9-5.3 9.5-8.8 4.7-3.6 8.1-5.5 3.3-1.9 8.5-4.3 5.2-2.5 11.3-4.9 6.2-2.5 13.1-4.9 6.8-2.5 14-4.4 7.1-1.9 13.9-3 6.8-1.2 12.9-1.2 13.6 0 22 1.3 8.4 1.3 12.8 3.1 4.4 1.9 5.5 3.8 1.1 1.9 0.2 3z"/><path class="d" d="m285.2 139.5q-2.3 2.9-5.6 5.7-2.8 2.4-7 5.1-4.1 2.6-9.6 4.8 1.8-2.3 0.3-4.9-1.4-2.6-6.4-4.8-5-2.1-13.4-3.5-8.5-1.4-20.7-1.4-7.1 0-15.3 1.5-8.2 1.4-16.2 5-8.1 3.5-15.5 9.5-7.4 5.9-13.2 14.7-5.7 8.8-9.1 21-3.3 12.2-3.3 28.1 0 15.9 3.9 27.9 3.8 12.1 10.3 20.8 6.4 8.8 14.7 14.6 8.2 5.7 16.9 9.2 8.6 3.5 17 4.9 8.3 1.4 15 1.4 5.1 0 11-0.5 4.9-0.4 11.3-1.2 6.4-0.9 13.2-2.7 1.8-1.9 2.8-4 1-2.1 1.7-3.9 0.6-2 1-4.1 0.8-13.1 0.6-25.9-0.1-12.9-0.1-25.9-3.5-0.3-7.6-0.7-4.1-0.4-8-0.4-3.2 0-5.8 0.2-2.6 0.3-4.7 1.2 7.3-4.5 12.4-6.9 5.1-2.5 8.4-3.9 3.8-1.6 6.3-2.1 2.8-0.3 7-0.6 4.1-0.2 8.5-0.4 4.4-0.2 8.6-0.5 4.3-0.4 7.5-1l-8.9 6.2q-0.3 13.3-0.6 22.1-0.3 8.8-0.6 14.2-0.4 6.2-0.6 9.9-0.1 4.2-1.5 8-1.3 3.8-4.2 7.5-2.8 3.6-7.5 7.2-4.6 3.5-11.2 7.2-10.3 6.9-19.1 10.6-8.8 3.7-15.3 5.4-7.6 2.1-13.9 2.5-18.8 0-35.4-5.6-16.7-5.5-29.2-16-12.6-10.5-19.8-25.8-7.3-15.2-7.3-34.7 0-12.1 2.3-22.5 2.3-10.3 6.1-19 3.7-8.6 8.4-15.6 4.7-6.9 9.6-12.2 4.9-5.3 9.5-8.8 4.7-3.6 8.2-5.5 3.3-1.9 8.4-4.3 5.2-2.4 11.3-4.9 6.2-2.5 13.1-4.9 6.8-2.4 14-4.3 7.1-1.9 13.9-3.1 6.8-1.1 12.9-1.1 13.6 0 22 1.2 8.4 1.3 12.8 3.2 4.4 1.8 5.5 3.7 1.1 1.9 0.2 3.1z"/><g clip-path="url(#cp1)"><path class="e" d="m2.7 179.9h321.4v36.8h-321.4z"/></g><path  d="m63.6 188.1q-0.2 0.3-0.6 0.6-0.3 0.3-0.8 0.6-0.4 0.3-1 0.5 0.2-0.2 0-0.5-0.2-0.3-0.7-0.5-0.6-0.3-1.5-0.4-0.9-0.2-2.3-0.2-0.8 0-1.7 0.2-0.9 0.1-1.8 0.5-0.9 0.4-1.8 1.1-0.8 0.6-1.4 1.6-0.7 1-1.1 2.4-0.3 1.3-0.3 3.1 0 1.8 0.4 3.1 0.4 1.4 1.2 2.3 0.7 1 1.6 1.7 0.9 0.6 1.9 1 1 0.4 1.9 0.6 0.9 0.1 1.7 0.1 0.8 0 1.8-0.1 0.8-0.1 1.8-0.3 0.9-0.2 1.9-0.6-1.4 1.1-2.6 1.7-1.2 0.6-2.1 0.9-1 0.3-1.9 0.3-2.1 0-3.9-0.6-1.9-0.6-3.3-1.8-1.4-1.1-2.2-2.8-0.8-1.7-0.8-3.9 0-1.4 0.2-2.5 0.3-1.2 0.7-2.1 0.4-1 1-1.8 0.5-0.8 1-1.3 0.6-0.6 1.1-1 0.5-0.4 0.9-0.6 0.4-0.2 0.9-0.5 0.6-0.3 1.3-0.6 0.7-0.2 1.5-0.5 0.7-0.3 1.5-0.5 0.8-0.2 1.6-0.3 0.7-0.2 1.4-0.2 1.5 0 2.5 0.2 0.9 0.1 1.4 0.3 0.5 0.2 0.6 0.4 0.1 0.2 0 0.4z"/><path fill-rule="evenodd" d="m74.3 186.6q-0.7 0.4-1.2 0.7-0.6 0.3-1 0.5-0.1 2.6-0.2 4.6 0 2-0.1 3.6 0 1.6 0 2.7 0 1.2 0 2-0.1 1.9-0.1 2.6 0 0.5-0.1 1-0.1 0.4-0.3 0.8-0.1 0.5-0.5 0.8 0.9 0 1.6 0 0.8 0 1.5 0 1.9 0 3.2 0 1.2-0.1 2-0.1 0.7-0.1 1.1-0.2 0.3 0 0.3-0.1-0.7 0.6-1.2 0.9-0.5 0.4-0.9 0.6-0.4 0.3-0.8 0.4-0.4 0.1-0.9 0.1c-0.6 0-3.4 0-4.2 0q-1 0-2 0-1 0-1.8 0.1-0.7 0-1.1 0.1 0.4-0.3 0.8-0.7 0.3-0.4 0.5-1 0.3-0.6 0.4-1.4 0.1-0.8 0.1-2v-14.3q-0.4 0-1 0.1-0.7 0.1-1.5 0.2 0.8-0.7 1.4-1 0.6-0.3 1.1-0.5 0.5-0.1 0.9-0.1 0.5 0 1.1-0.1 0.6 0 1.1 0 0.6-0.1 1.1-0.2 0.4-0.1 0.7-0.1zm6.2 18.9q0 0 0.1 0z"/><path fill-rule="evenodd" d="m87.8 206.1q-0.8 0.4-1.5 0.7-0.7 0.3-1.3 0.5-0.5 0.1-1 0.2-0.5 0.1-0.8 0.1h-2.2l1.6-0.9q0.2-0.3 0.4-0.6 0.3-0.3 0.4-0.6 0.2-0.3 0.4-0.6 0.4-0.9 1.3-2.9 0.3-0.8 0.8-2 0.5-1.2 1.1-2.7 0.7-1.6 1.5-3.6 0.8-2 1.7-4.5l2.5-2.2 5.6 18.8q0.5 0.2 1.1 0.2 0.5 0.1 1 0.1 0.3 0 0.5 0 0.2 0 0.4-0.1 0.1 0.1 0.3 0-0.8 0.4-1.5 0.7-0.6 0.3-1 0.5-0.5 0.2-0.9 0.3-0.4 0.1-0.8 0.1h-2.3l0.7-0.5-2.2-7.5q-0.5 0.1-1 0.2-0.5 0.1-1.3 0.2-0.7 0.1-1.7 0.2-1 0-2.3 0.1-0.6 1.3-1.1 2.2-0.5 1-0.9 1.7-0.4 0.8-0.7 1.3-0.3 0.4-0.5 0.8 0.3 0 0.5 0 0.4 0 0.6 0 0.5 0 0.9 0 0.5 0 0.9-0.1 0.4 0 0.8-0.1zm2-7.5q1.9 0 3.4-0.1l-2.1-7.2q-0.9 2.3-1.7 4-0.7 1.8-1.3 3.3z"/><path  d="m116.4 201.6q0 0.7-0.4 1.5-0.5 0.7-1.3 1.5-0.7 0.7-1.7 1.3-0.9 0.7-1.9 1.2-0.9 0.4-1.8 0.7-0.9 0.3-1.5 0.3-0.6 0.1-1.2-0.1-0.7-0.1-1.3-0.3-0.6-0.2-1.1-0.4-0.5-0.2-0.6-0.4-0.1-0.1-0.2-0.2-0.1-0.2-0.1-0.3 0-0.2 0.1-0.4 0.1-0.1 0.3-0.3 0.2-0.2 0.5-0.4 0.3-0.2 0.7-0.5 0.4-0.4 1-0.8-0.3 0.2-0.3 0.4-0.1 0.2-0.1 0.3 0.1 0.2 0.2 0.3 0.1 0.2 0.5 0.4 0.3 0.3 0.8 0.5 0.5 0.1 1.1 0.3 0.7 0.1 1.4 0.1 0.8 0 1.6-0.1 0.8-0.2 1.5-0.6 0.7-0.4 1.1-1 0.4-0.6 0.4-1.6 0-0.9-0.4-1.5-0.4-0.7-1.1-1.2-0.6-0.5-1.5-0.9-0.8-0.5-1.7-0.9-0.9-0.4-1.7-0.9-0.9-0.4-1.5-1-0.7-0.5-1.1-1.2-0.4-0.7-0.4-1.6 0-0.9 0.4-1.7 0.5-0.9 1.2-1.6 0.7-0.8 1.6-1.4 0.9-0.6 1.9-1.1 1-0.5 1.9-0.7 0.9-0.3 1.7-0.3 0.7 0 1.4 0.1 0.6 0 1.1 0.2 0.4 0.1 0.6 0.4 0.2 0.2-0.1 0.5-0.2 0.3-0.5 0.5-0.3 0.3-0.7 0.6-0.4 0.3-1 0.6 0.1-0.2 0.1-0.3 0-0.1 0-0.2 0-0.1-0.1-0.2-0.1-0.1-0.3-0.2-0.3-0.1-0.7-0.2-0.3-0.1-0.8-0.1-0.5-0.1-1-0.1-0.8 0-1.6 0.2-0.8 0.2-1.4 0.6-0.6 0.5-1 1.1-0.3 0.7-0.3 1.6 0 0.9 0.4 1.6 0.4 0.8 1 1.3 0.7 0.6 1.5 1.1 0.9 0.4 1.8 0.8 0.8 0.4 1.7 0.9 0.8 0.4 1.5 1 0.6 0.5 1 1.2 0.4 0.7 0.4 1.6z"/><path  d="m133.3 201.6q0 0.7-0.5 1.5-0.5 0.7-1.2 1.5-0.8 0.7-1.7 1.3-1 0.7-1.9 1.2-1 0.4-1.9 0.7-0.9 0.3-1.5 0.3-0.5 0.1-1.2-0.1-0.7-0.1-1.3-0.3-0.6-0.2-1-0.4-0.5-0.2-0.7-0.4-0.1-0.1-0.2-0.2 0-0.2 0-0.3 0-0.2 0.1-0.4 0.1-0.1 0.3-0.3 0.2-0.2 0.5-0.4 0.2-0.2 0.6-0.5 0.4-0.4 1-0.8-0.2 0.2-0.3 0.4 0 0.2 0 0.3 0 0.2 0.1 0.3 0.1 0.2 0.5 0.4 0.4 0.3 0.9 0.5 0.5 0.1 1.1 0.3 0.6 0.1 1.3 0.1 0.8 0 1.7-0.1 0.8-0.2 1.4-0.6 0.7-0.4 1.1-1 0.4-0.6 0.4-1.6 0-0.9-0.4-1.5-0.4-0.7-1.1-1.2-0.6-0.5-1.4-0.9-0.9-0.5-1.8-0.9-0.8-0.4-1.7-0.9-0.8-0.4-1.5-1-0.6-0.5-1-1.2-0.4-0.7-0.4-1.6 0-0.9 0.4-1.7 0.4-0.9 1.1-1.6 0.8-0.8 1.7-1.4 0.9-0.6 1.8-1.1 1-0.5 1.9-0.7 1-0.3 1.7-0.3 0.7 0 1.4 0.1 0.7 0 1.1 0.2 0.5 0.1 0.7 0.4 0.1 0.2-0.1 0.5-0.2 0.3-0.5 0.5-0.3 0.3-0.8 0.6-0.4 0.3-1 0.6 0.2-0.2 0.2-0.3 0-0.1 0-0.2-0.1-0.1-0.2-0.2-0.1-0.1-0.3-0.2-0.3-0.1-0.6-0.2-0.4-0.1-0.9-0.1-0.4-0.1-1-0.1-0.8 0-1.6 0.2-0.8 0.2-1.4 0.6-0.6 0.5-0.9 1.1-0.4 0.7-0.4 1.6 0 0.9 0.4 1.6 0.4 0.8 1.1 1.3 0.6 0.6 1.5 1.1 0.8 0.4 1.7 0.8 0.9 0.4 1.7 0.9 0.8 0.4 1.5 1 0.7 0.5 1.1 1.2 0.4 0.7 0.4 1.6z"/><path  d="m145.2 205.8q-0.8 0.5-1.3 0.8-0.5 0.4-0.9 0.7-0.4 0.2-0.8 0.3-0.3 0.1-0.9 0.1-0.6 0-1.1-0.1-0.5 0-1 0-0.2 0-0.5 0-0.2 0-0.5 0.1 0.4-0.3 0.7-0.7 0.3-0.4 0.6-1 0.2-0.6 0.3-1.4 0.2-0.8 0.2-2v-14.3q-0.5 0-1.1 0.1-0.6 0.1-1.4 0.2 0.7-0.7 1.4-1 0.6-0.3 1-0.5 0.5-0.1 0.9-0.1 0.5 0 1.1-0.1 0.6 0 1.2 0 0.6-0.1 1-0.2 0.5-0.1 0.7-0.1-0.7 0.4-1.2 0.7-0.5 0.3-1 0.5-0.1 2.6-0.1 4.6-0.1 2-0.1 3.6 0 1.6-0.1 2.7 0 1.2 0 2 0 1.9 0 2.6 0 0.5-0.2 1-0.1 0.4-0.3 1-0.2 0.5-0.7 0.9 0.3 0 0.6 0 0.2 0 0.5 0 0.7 0 1.2-0.1 0.6 0 1-0.1 0.4-0.1 0.8-0.2z"/><path  d="m166.6 188.1q-0.2 0.3-0.6 0.6-0.3 0.3-0.8 0.6-0.4 0.3-1.1 0.5 0.3-0.2 0.1-0.5-0.2-0.3-0.7-0.5-0.6-0.3-1.5-0.4-1-0.2-2.3-0.2-0.8 0-1.7 0.2-1 0.1-1.9 0.5-0.8 0.4-1.7 1.1-0.8 0.6-1.5 1.6-0.6 1-1 2.4-0.3 1.3-0.3 3.1 0 1.8 0.4 3.1 0.4 1.4 1.1 2.3 0.8 1 1.7 1.7 0.9 0.6 1.9 1 0.9 0.4 1.9 0.6 0.9 0.1 1.6 0.1 0.9 0 1.9-0.1 0.8-0.1 1.7-0.3 1-0.2 1.9-0.6-1.3 1.1-2.5 1.7-1.2 0.6-2.1 0.9-1 0.3-1.9 0.3-2.1 0-4-0.6-1.8-0.6-3.2-1.8-1.4-1.1-2.2-2.8-0.8-1.7-0.8-3.9 0-1.4 0.2-2.5 0.3-1.2 0.7-2.1 0.4-1 0.9-1.8 0.6-0.8 1.1-1.3 0.6-0.6 1.1-1 0.5-0.4 0.9-0.6 0.4-0.2 0.9-0.5 0.6-0.3 1.3-0.6 0.7-0.2 1.4-0.5 0.8-0.3 1.6-0.5 0.8-0.2 1.6-0.3 0.7-0.2 1.4-0.2 1.5 0 2.5 0.2 0.9 0.1 1.4 0.3 0.5 0.2 0.6 0.4 0.1 0.2 0 0.4z"/><path  d="m197.2 188.1q-0.2 0.3-0.6 0.6-0.3 0.3-0.8 0.6-0.4 0.3-1.1 0.5 0.3-0.2 0.1-0.5-0.2-0.3-0.7-0.5-0.6-0.3-1.5-0.4-1-0.2-2.3-0.2-0.8 0-1.7 0.2-1 0.1-1.9 0.5-0.9 0.4-1.7 1.1-0.8 0.6-1.5 1.6-0.6 1-1 2.4-0.3 1.3-0.3 3.1 0 1.8 0.4 3.1 0.4 1.4 1.1 2.3 0.8 1 1.7 1.7 0.9 0.6 1.9 1 0.9 0.4 1.9 0.6 0.9 0.1 1.6 0.1 0.6 0 1.3-0.1 0.5 0 1.2-0.1 0.7-0.1 1.5-0.3 0.2-0.2 0.3-0.4 0.1-0.3 0.2-0.5 0.1-0.2 0.1-0.4 0.1-1.5 0.1-2.9 0-1.5 0-2.9-0.4 0-0.9-0.1-0.4-0.1-0.9-0.1-0.3 0.1-0.6 0.1-0.3 0-0.5 0.1 0.8-0.5 1.3-0.8 0.6-0.2 1-0.4 0.4-0.2 0.7-0.2 0.3-0.1 0.7-0.1 0.5 0 1 0 0.5-0.1 1-0.1 0.5 0 0.8-0.1l-1 0.7q0 1.5 0 2.5-0.1 1-0.1 1.5-0.1 0.7-0.1 1.2 0 0.4-0.2 0.8-0.1 0.5-0.4 0.9-0.3 0.4-0.8 0.8-0.6 0.4-1.3 0.8-1.2 0.7-2.1 1.2-1 0.4-1.7 0.6-0.9 0.2-1.6 0.2-2.1 0-4-0.6-1.8-0.6-3.2-1.8-1.4-1.1-2.2-2.8-0.8-1.7-0.8-3.9 0-1.4 0.2-2.5 0.3-1.2 0.7-2.1 0.4-1 0.9-1.8 0.6-0.8 1.1-1.3 0.6-0.6 1.1-1 0.5-0.4 0.9-0.6 0.4-0.2 0.9-0.5 0.6-0.3 1.3-0.6 0.7-0.2 1.4-0.5 0.8-0.3 1.6-0.5 0.8-0.2 1.6-0.3 0.7-0.2 1.4-0.2 1.5 0 2.5 0.2 0.9 0.1 1.4 0.3 0.5 0.2 0.6 0.4 0.1 0.2 0 0.4z"/><path  d="m217 192.4q-0.1 1-0.6 1.8-0.4 0.8-1.1 1.4-0.6 0.6-1.3 1.1-0.8 0.4-1.4 0.7 1.2 1.3 2.2 2.4 1 1 1.8 1.8 0.8 0.9 1.4 1.4 0.5 0.6 1 1 0.9 1 1.3 1.3 0.4 0.3 0.9 0.4 0.4 0.1 0.9 0.1 0.3 0 0.7 0 0.3-0.1 0.5-0.2-0.6 0.5-1.2 0.8-0.5 0.4-0.9 0.7-0.5 0.2-0.9 0.4-0.3 0.1-0.7 0.1-0.3 0-0.6-0.1-0.3-0.1-0.6-0.2-0.3-0.2-0.6-0.5-0.4-0.3-0.8-0.7-0.3-0.3-0.8-0.9-0.6-0.6-1.2-1.3-0.7-0.8-1.4-1.6-0.7-0.8-1.4-1.5-0.6-0.7-1.1-1.2-0.5-0.4-0.7-0.6-0.2-0.1-0.4-0.2-0.2-0.1-0.5-0.1-0.2-0.1-0.5-0.1l2.1-1.4q0.7 0 1.3-0.3 0.7-0.3 1.1-1 0.5-0.6 0.8-1.5 0.2-0.9 0.2-2.1 0-0.7-0.3-1.2-0.3-0.6-0.7-1-0.4-0.4-1-0.8-0.6-0.3-1.1-0.5-0.6-0.2-1.2-0.4-0.6-0.1-1.1-0.1-0.3 0-0.7 0.1-0.3 0-0.7 0-0.1 2.6-0.1 4.7-0.1 2.1-0.1 3.7-0.1 1.6-0.1 2.8 0 1.2-0.1 2 0 1.9-0.1 2.6-0.1 0.3-0.2 0.6-0.1 0.3-0.2 0.5-0.1 0.3-0.4 0.6 0.6 0.1 1.1 0.1 0.5 0 0.9 0 1 0 1.5 0 0.4-0.1 0.5-0.1-0.7 0.3-1.4 0.6-0.6 0.4-1.2 0.6-0.7 0.2-1.2 0.4-0.5 0.1-1 0.1h-2.5l1.2-0.8q0.1-0.4 0.2-0.9 0.1-0.5 0.2-1.1 0-0.6 0.1-1.2 0-0.6 0.1-1.3 0.1-1.4 0.1-2.9 0.1-2.2 0.1-4.2 0-0.9 0-1.8 0-0.9 0-1.8 0-0.9 0-1.7 0.1-0.8 0.1-1.4l-2.6 0.2 2.8-1.6q0.2 0 0.5 0 0.3 0 0.6 0 0.6 0 1.2 0 0.6-0.1 1.2-0.1 0.6-0.1 1.2-0.2 0.5 0 1.1 0 1.1 0 2.2 0.4 1.1 0.3 2 1.1 0.8 0.7 1.3 1.7 0.4 1.1 0.3 2.4zm6.4 13.2q-0.1 0-0.1 0 0.1 0 0.1 0z"/><path fill-rule="evenodd" d="m245 196.6q0 1.8-0.6 3.3-0.6 1.6-1.6 2.8-1 1.3-2.2 2.3-1.3 0.9-2.6 1.6-1.3 0.6-2.6 1-1.2 0.3-2.2 0.3-0.9 0-1.8-0.2-1-0.3-1.9-0.8-0.9-0.5-1.8-1.3-0.9-0.8-1.5-1.8-0.6-1-1-2.3-0.4-1.2-0.4-2.7 0-2 0.6-3.7 0.5-1.6 1.4-2.9 0.9-1.3 2.1-2.3 1.2-1 2.4-1.6 1.2-0.7 2.4-1 1.2-0.3 2.2-0.3 1 0 2 0.2 1.1 0.2 2.1 0.7 1 0.5 1.9 1.2 0.9 0.7 1.6 1.8 0.7 1.1 1.1 2.5 0.4 1.4 0.4 3.2zm-2.6 0.9q0-1.6-0.4-2.9-0.4-1.3-1-2.2-0.6-1-1.5-1.7-0.8-0.8-1.7-1.2-1-0.5-1.9-0.7-0.9-0.2-1.8-0.2-1.3 0-2.6 0.5-1.2 0.5-2.2 1.5-1 1.1-1.5 2.8-0.6 1.7-0.6 4.1 0 1.5 0.4 2.8 0.5 1.2 1.2 2.2 0.8 0.9 1.7 1.6 0.9 0.7 1.9 1.1 1 0.4 1.8 0.7 0.9 0.2 1.6 0.2 0.7 0 1.4-0.2 0.8-0.3 1.5-0.7 0.7-0.4 1.4-1.1 0.7-0.7 1.2-1.6 0.5-1 0.8-2.2 0.3-1.3 0.3-2.8z"/><path  d="m256.4 187.1q-0.6 0.4-1.3 0.8-0.7 0.5-1.3 0.7 0 1.9-0.1 3.3 0 1.5-0.1 2.7 0 1.2 0 2.2 0 0.9 0 1.6-0.1 1.6 0 2.5-0.1 1 0.2 1.9 0.4 1 1 1.7 0.7 0.8 1.9 1.2 1.1 0.5 2.8 0.5 0.8-0.1 1.8-0.3 0.8-0.2 1.8-0.6 0.9-0.4 1.9-1.1v-15.4q-0.2 0-0.4 0-0.2 0-0.4 0-0.4 0-0.8 0-0.4 0-0.7 0.1 0.6-0.6 1.1-0.9 0.6-0.4 0.9-0.5 0.5-0.2 0.8-0.2 0.2 0 0.6 0 0.5 0 0.9 0 0.5 0 1-0.1 0.4 0 0.8 0 0.4 0 0.7-0.1 0.3 0 0.4 0-0.5 0.4-1.1 0.8-0.6 0.3-1.2 0.6v14.6q0 0.7-0.1 1.3 0 0.5-0.1 1-0.2 0.5-0.4 0.7 0.8 0.1 1.4 0.1 0.6 0.1 1.1 0.1 0.8 0 1.1-0.1 0.4-0.1 0.4-0.1-0.7 0.4-1.2 0.7-0.6 0.3-1.1 0.4-0.4 0.2-0.9 0.3-0.5 0.1-0.9 0.1h-2.8q0.3-0.1 0.5-0.5 0.2-0.4 0.3-0.8 0.1-0.5 0.1-1v-0.7q-1.5 1.2-2.9 1.9-1.4 0.6-2.4 0.9-1.2 0.4-2.3 0.4-1.8 0-3.1-0.5-1.2-0.4-1.9-1.3-0.7-0.8-1-2-0.3-1.2-0.3-2.7 0-1.1 0-2.9 0-1.5 0.1-3.9 0-2.4 0.1-5.7h-0.7q-0.4 0-0.7 0-0.4 0-0.8 0.1 0.7-0.6 1.2-0.9 0.5-0.4 0.9-0.5 0.4-0.2 0.8-0.2 0.2 0 0.6 0 0.4 0 0.9 0 0.5 0 0.9-0.1 0.5 0 0.9 0 0.4 0 0.7-0.1 0.3 0 0.4 0zm14.6 19q0.1 0 0.1 0z"/><path  d="m288.8 192.4q-0.1 0.9-0.5 1.7-0.3 0.8-0.8 1.5-0.5 0.6-1 1.2-0.6 0.5-1.1 0.9-0.6 0.4-1.1 0.6-0.5 0.3-0.8 0.4-0.4 0.2-0.8 0.3-0.5 0.2-1 0.3-0.5 0.1-1.2 0l1.5-0.7q0.8 0.1 1.6-0.4 0.8-0.5 1.4-1.3 0.7-0.9 1-2.1 0.4-1.1 0.3-2.5-0.1-1-0.6-1.8-0.5-0.8-1.1-1.3-0.7-0.5-1.5-0.8-0.7-0.3-1.5-0.3-0.5 0-1.2 0-0.7 0.1-1.4 0.1-0.1 2.7-0.1 4.8-0.1 2.1-0.1 3.8-0.1 1.6-0.1 2.8 0 1.2-0.1 2-0.1 1.9-0.1 2.6-0.1 0.3-0.2 0.6-0.1 0.3-0.2 0.5-0.2 0.3-0.4 0.6 0.6 0.1 1.1 0.1 0.5 0 0.9 0 1 0 1.5 0 0.4-0.1 0.5-0.1-0.7 0.3-1.4 0.6-0.7 0.4-1.3 0.6-0.5 0.2-1.1 0.4-0.5 0.1-1.1 0.1h-2.4l1.2-0.8q0.1-0.4 0.2-0.9 0.1-0.5 0.2-1.1 0-0.6 0.1-1.2 0-0.6 0.1-1.3 0.1-1.4 0.1-2.9 0-2.2 0.1-4.3 0-0.8 0-1.7 0-1 0-1.9 0-0.9 0-1.6 0.1-0.8 0.1-1.5l-2.6 0.3 2.8-1.6q0.4 0 0.7 0 0.4 0 0.9 0 0.7 0 1.3 0 0.7-0.1 1.3-0.1 0.6-0.1 1.3-0.2 0.6 0 1.2 0 1.1 0 2.1 0.4 1.1 0.3 1.8 1.1 0.8 0.7 1.2 1.7 0.4 1.1 0.3 2.4z"/></svg>