<svg version="1.2" xmlns="http://www.w3.org/2000/svg" viewBox="0 0 1516 224" width="300" height="44"><style>.a{fill:#ff4136}.b{fill:#6230a3}.c{fill:none}</style><path fill-rule="evenodd" class="a" d="m312.1 190.3q-14.6 0-26.2-6.3-11.7-6.3-18.5-18.1-6.9-11.7-6.9-27.7 0-15 6.3-26.4 6.3-11.4 17.8-17.5 11.5-6.2 26.4-6.2 11.4 0 19.6 2.9 8.3 2.9 13 7.1l-10.3 18.5q-9-8.9-20.3-8.9-13.7 0-20.9 8.2-7.2 8.3-7.2 22.1 0 15.7 7.4 24.5 7.4 8.7 20.7 8.7 6.6 0 12.9-1.9 6.3-2 9.8-4.5l8.3 16.1q-4.7 3.6-13.1 6.5-8.5 2.9-18.8 2.9zm55.9-2.1v-156.1h22.9v156.1zm98.9 2.1q-13.3 0-24.5-6.3-11.3-6.3-18-17.8-6.7-11.6-6.7-27.1 0-15.3 5.8-26.8 5.9-11.4 16.8-17.8 11-6.4 25.7-6.4 8.6 0 16.1 3 7.5 3 12.6 7.3 5.1 4.4 6.9 8.6l0.4-16.3h22.1v97.5h-21.9l-0.4-17.3q-3.6 7.7-13.3 13.5-9.6 5.9-21.6 5.9zm3.8-19.1q12.2 0 20.6-8.4 8.3-8.4 8.3-22v-1.5q0-9.1-3.8-16.3-3.9-7.3-10.5-11.3-6.7-4-14.6-4-13.7 0-21.2 8.8-7.5 8.8-7.5 22.8 0 14.2 7.4 23 7.4 8.9 21.3 8.9zm118.2 19.1q-10.3 0-21.3-2.7-11-2.6-15.8-6.2l7.7-18.1q12.9 8.9 29.4 8.9 16.5 0 16.5-9.5 0-4.3-3.5-6.6-3.4-2.4-12.2-5.5l-8.1-3q-12.8-5.1-20.3-12.2-7.5-7.1-7.5-18.8 0-13.4 10.6-21 10.6-7.5 28.3-7.5 8.8 0 17.3 1.9 8.4 2 12.9 4.9l-8.3 18.3q-2.8-2.8-8.9-4.8-6.1-2-13.6-2-15.2 0-15.2 9.1 0 5.1 4.1 7.8 4 2.6 13.2 5.8 0.9 0.2 6.7 2.4 13.7 5.3 20.3 12.1 6.6 6.8 6.6 17.4 0 14.4-11 21.8-11 7.5-27.9 7.5zm96.7 0q-10.2 0-21.3-2.7-11-2.6-15.7-6.2l7.7-18.1q12.9 8.9 29.3 8.9 16.5 0 16.5-9.5 0-4.3-3.4-6.6-3.4-2.4-12.2-5.5l-8.1-3q-12.9-5.1-20.4-12.2-7.5-7.1-7.5-18.8 0-13.4 10.6-21 10.6-7.5 28.4-7.5 8.8 0 17.2 1.9 8.5 2 13 4.9l-8.4 18.3q-2.8-2.8-8.9-4.8-6.1-2-13.5-2-15.2 0-15.2 9.1 0 5.1 4 7.8 4.1 2.6 13.3 5.8 0.9 0.2 6.6 2.4 13.7 5.3 20.4 12.1 6.6 6.8 6.6 17.4 0 14.4-11 21.8-11 7.5-28 7.5zm64.7-2.1v-97.5h24v97.5zm11.7-115.8q-6.6 0-11.1-4.4-4.5-4.5-4.5-11.1 0-5.9 4.5-10.2 4.5-4.2 11.1-4.2 6.5 0 11 4.2 4.5 4.3 4.5 10.2 0 6.6-4.4 11.1-4.4 4.4-11.1 4.4zm90.1 117.9q-14.5 0-26.2-6.3-11.7-6.3-18.5-18.1-6.9-11.7-6.9-27.7 0-15 6.4-26.4 6.3-11.4 17.7-17.5 11.5-6.2 26.5-6.2 11.3 0 19.6 2.9 8.2 2.9 12.9 7.1l-10.3 18.5q-9-8.9-20.3-8.9-13.7 0-20.9 8.2-7.2 8.3-7.2 22.1 0 15.7 7.5 24.5 7.3 8.7 20.6 8.7 6.6 0 13-1.9 6.3-2 9.7-4.5l8.3 16.1q-4.7 3.6-13.1 6.5-8.5 2.9-18.8 2.9z"/><path fill-rule="evenodd" class="b" d="m993.4 225.1q-10.9 0-21.5-3-10.6-2.9-15.1-5.5l5.2-21.2q14.1 9.1 30.8 9.1 12.8 0 21.6-6.1 8.8-6.2 9-24v-17.5q-4.5 8.3-14.5 13.9-10.1 5.5-22.3 5.5-12.9 0-23.6-6.3-10.7-6.3-16.9-17.9-6.2-11.7-6.2-27.2 0-14.9 5.9-26.4 5.9-11.6 16.8-18 10.9-6.4 25.5-6.4 8.5 0 16 3 7.5 3 12.8 7.3 5.2 4.4 6.9 8.6l0.5-16.3h21.8v96.8q0 24.9-12.8 38.2-12.9 13.4-39.9 13.4zm-0.4-68.2q12.2 0 20.6-8.4 8.3-8.3 8.3-21.9v-1.5q0-9.1-3.8-16.4-3.9-7.2-10.5-11.2-6.7-4-14.6-4-13.7 0-21.2 8.7-7.5 8.9-7.5 22.9 0 14.2 7.4 23 7.4 8.8 21.3 8.8zm82 17.3v-97.5h23.1v19.1q3.4-9.8 11.2-15.7 7.7-6 17.5-6 6.9 0 9.4 1.3l-3.2 23.1q-1.9-1.2-8.3-1.2-10.1 0-18.4 6.3-8.2 6.4-8.2 20.4v50.2zm123.3 2.1q-15.2 0-27-6.8-11.8-6.8-18.2-18.5-6.4-11.7-6.4-25.9 0-14 6.3-25.7 6.3-11.7 18.1-18.5 11.8-6.8 27.2-6.8 15.4 0 27.1 6.8 11.6 6.8 18 18.5 6.3 11.7 6.3 25.7 0 14.2-6.5 25.9-6.4 11.7-18 18.5-11.7 6.8-26.9 6.8zm0.6-18.7q12.5 0 19.6-9.1 7.2-9.2 7.2-23 0-13.8-7.7-23.3-7.7-9.4-20.4-9.4-12.2 0-19.5 9.4-7.4 9.3-7.4 23.3 0 13.6 7.9 22.8 7.9 9.3 20.3 9.3zm109.4 18.7q-20.3 0-27.9-11.9-7.6-11.9-7.6-33.1v-54.6h23.1v48.8q0 12.1 1.4 18.8 1.4 6.7 5.6 9.9 4.1 3.2 12.5 3.2 6 0 11.6-3.4 5.5-3.4 9.1-9.3 3.5-5.8 3.5-12.8v-55.2h22.9v97.5h-18.8l-2.6-14.3q-5.4 8.3-13.4 12.3-8 4.1-19.4 4.1zm85.4 49.5v-149.1h22.3v18q11.8-20.6 36.8-20.6 20.8 0 33.6 13.1 12.9 13 12.9 37.7 0 15.3-6.3 27-6.3 11.6-17.2 18-10.8 6.4-24 6.4-12.5 0-21.6-4.4-9-4.3-14.2-12.4l0.2 66.3zm52.7-68.9q13.9 0 21.4-8.8 7.5-8.8 7.5-22.6 0-14.4-7.4-23-7.4-8.6-21.5-8.6-7.7 0-14.5 3.7-6.7 3.7-10.7 10.6-3.9 6.9-3.9 16v1.5q0 9.2 3.9 16.3 4 7.1 10.6 11 6.7 3.9 14.6 3.9z"/><path class="a" d="m64.2 101.4v-18.2h40.7l11.7 11.7c0.8 0.8 1.8 1.1 2.7 1.1 1 0 2.2-0.3 2.8-1.1l13.6-13.6c0.8-0.8 1.2-1.8 1.2-2.8 0-0.9-0.5-2.1-1.2-2.7l-18.5-18.5c-0.6-0.8-1.7-1.1-2.7-1.1h-57.3l40.4-21.2c2-1 2.8-3.4 1.6-5.3-0.9-2-3.4-2.8-5.3-1.6l-54.7 28.6c0 0-0.2 0-0.2 0.2-0.1 0-0.3 0.1-0.3 0.1-0.2 0-0.2 0.2-0.3 0.2-0.2 0.1-0.2 0.1-0.3 0.3-0.2 0.2-0.2 0.2-0.2 0.3 0 0.2-0.2 0.2-0.2 0.4 0 0.1-0.1 0.1-0.1 0.3 0 0.1-0.2 0.1-0.2 0.3 0 0.2-0.1 0.2-0.1 0.3 0 0.2 0 0.2 0 0.3q0 0.3 0 0.5v0.2 19.1 22"/><path class="a" d="m99.6 118v-8.7h-62.5v8.7"/><path class="a" d="m37.1 125.9v58.5c0 2.2 1.8 3.8 3.9 3.8h134.2c34.5 0 62.9-26.3 66.2-59.8 0.1-1.5-1-2.6-2.5-2.6h-201.8z"/><path class="c" d="m-166.9 239.1h1498.2v207.6h-1498.2z"/></svg>